  0
SECTION
  2
HEADER
  9
$ACADVER
  1
AC1015
  9
$ACADMAINTVER
 70
     6
  9
$DWGCODEPAGE
  3
ANSI_1252
  9
$INSBASE
 10
0.0
 20
0.0
 30
0.0
  9
$EXTMIN
 10
-5.2070866223
 20
-18.8815789474
 30
0.0
  9
$EXTMAX
 10
5.2070866223
 20
18.75
 30
0.0
  9
$LIMMIN
 10
0.0
 20
0.0
  9
$LIMMAX
 10
420.0
 20
297.0
  9
$ORTHOMODE
 70
     0
  9
$REGENMODE
 70
     1
  9
$FILLMODE
 70
     1
  9
$QTEXTMODE
 70
     0
  9
$MIRRTEXT
 70
     1
  9
$LTSCALE
 40
1.0
  9
$ATTMODE
 70
     1
  9
$TEXTSIZE
 40
3.5
  9
$TRACEWID
 40
1.0
  9
$TEXTSTYLE
  7
Standard
  9
$CLAYER
  8
0
  9
$CELTYPE
  6
ByLayer
  9
$CECOLOR
 62
   256
  9
$CELTSCALE
 40
1.0
  9
$DISPSILH
 70
     0
  9
$DIMSCALE
 40
1.0
  9
$DIMASZ
 40
3.302
  9
$DIMEXO
 40
1.0
  9
$DIMDLI
 40
3.75
  9
$DIMRND
 40
0.0
  9
$DIMDLE
 40
0.0
  9
$DIMEXE
 40
1.0
  9
$DIMTP
 40
0.0
  9
$DIMTM
 40
0.0
  9
$DIMTXT
 40
3.5
  9
$DIMCEN
 40
2.5
  9
$DIMTSZ
 40
0.0
  9
$DIMTOL
 70
     0
  9
$DIMLIM
 70
     0
  9
$DIMTIH
 70
     1
  9
$DIMTOH
 70
     1
  9
$DIMSE1
 70
     0
  9
$DIMSE2
 70
     0
  9
$DIMTAD
 70
     1
  9
$DIMZIN
 70
     0
  9
$DIMBLK
  1

  9
$DIMASO
 70
     1
  9
$DIMSHO
 70
     1
  9
$DIMPOST
  1

  9
$DIMAPOST
  1

  9
$DIMALT
 70
     0
  9
$DIMALTD
 70
     3
  9
$DIMALTF
 40
0.0393700787
  9
$DIMLFAC
 40
1.0
  9
$DIMTOFL
 70
     1
  9
$DIMTVP
 40
0.0
  9
$DIMTIX
 70
     0
  9
$DIMSOXD
 70
     0
  9
$DIMSAH
 70
     0
  9
$DIMBLK1
  1

  9
$DIMBLK2
  1

  9
$DIMSTYLE
  2
ISO-25
  9
$DIMCLRD
 70
     0
  9
$DIMCLRE
 70
     0
  9
$DIMCLRT
 70
     0
  9
$DIMTFAC
 40
1.0
  9
$DIMGAP
 40
1.524
  9
$DIMJUST
 70
     0
  9
$DIMSD1
 70
     0
  9
$DIMSD2
 70
     0
  9
$DIMTOLJ
 70
     0
  9
$DIMTZIN
 70
     0
  9
$DIMALTZ
 70
     0
  9
$DIMALTTZ
 70
     0
  9
$DIMUPT
 70
     0
  9
$DIMDEC
 70
     2
  9
$DIMTDEC
 70
     2
  9
$DIMALTU
 70
     2
  9
$DIMALTTD
 70
     3
  9
$DIMTXSTY
  7
Standard
  9
$DIMAUNIT
 70
     0
  9
$DIMADEC
 70
     2
  9
$DIMALTRND
 40
0.0
  9
$DIMAZIN
 70
     0
  9
$DIMDSEP
 70
    44
  9
$DIMATFIT
 70
     3
  9
$DIMFRAC
 70
     0
  9
$DIMLDRBLK
  1

  9
$DIMLUNIT
 70
     2
  9
$DIMLWD
 70
    -2
  9
$DIMLWE
 70
    -2
  9
$DIMTMOVE
 70
     0
  9
$LUNITS
 70
     2
  9
$LUPREC
 70
     2
  9
$SKETCHINC
 40
1.0
  9
$FILLETRAD
 40
10.0
  9
$AUNITS
 70
     0
  9
$AUPREC
 70
     2
  9
$MENU
  1
.
  9
$ELEVATION
 40
0.0
  9
$PELEVATION
 40
0.0
  9
$THICKNESS
 40
0.0
  9
$LIMCHECK
 70
     0
  9
$CHAMFERA
 40
0.0
  9
$CHAMFERB
 40
0.0
  9
$CHAMFERC
 40
0.0
  9
$CHAMFERD
 40
0.0
  9
$SKPOLY
 70
     0
  9
$TDCREATE
 40
2459006.547641435
  9
$TDUCREATE
 40
2459006.505974769
  9
$TDUPDATE
 40
2459006.547966412
  9
$TDUUPDATE
 40
2459006.506299745
  9
$TDINDWG
 40
0.0000000116
  9
$TDUSRTIMER
 40
0.0000000116
  9
$USRTIMER
 70
     1
  9
$ANGBASE
 50
0.0
  9
$ANGDIR
 70
     0
  9
$PDMODE
 70
     0
  9
$PDSIZE
 40
-1.0
  9
$PLINEWID
 40
0.0
  9
$SPLFRAME
 70
     0
  9
$SPLINETYPE
 70
     6
  9
$SPLINESEGS
 70
     8
  9
$HANDSEED
  5
94
  9
$SURFTAB1
 70
     6
  9
$SURFTAB2
 70
     6
  9
$SURFTYPE
 70
     6
  9
$SURFU
 70
     6
  9
$SURFV
 70
     6
  9
$UCSBASE
  2

  9
$UCSNAME
  2

  9
$UCSORG
 10
0.0
 20
0.0
 30
0.0
  9
$UCSXDIR
 10
1.0
 20
0.0
 30
0.0
  9
$UCSYDIR
 10
0.0
 20
1.0
 30
0.0
  9
$UCSORTHOREF
  2

  9
$UCSORTHOVIEW
 70
     0
  9
$UCSORGTOP
 10
0.0
 20
0.0
 30
0.0
  9
$UCSORGBOTTOM
 10
0.0
 20
0.0
 30
0.0
  9
$UCSORGLEFT
 10
0.0
 20
0.0
 30
0.0
  9
$UCSORGRIGHT
 10
0.0
 20
0.0
 30
0.0
  9
$UCSORGFRONT
 10
0.0
 20
0.0
 30
0.0
  9
$UCSORGBACK
 10
0.0
 20
0.0
 30
0.0
  9
$PUCSBASE
  2

  9
$PUCSNAME
  2

  9
$PUCSORG
 10
0.0
 20
0.0
 30
0.0
  9
$PUCSXDIR
 10
1.0
 20
0.0
 30
0.0
  9
$PUCSYDIR
 10
0.0
 20
1.0
 30
0.0
  9
$PUCSORTHOREF
  2

  9
$PUCSORTHOVIEW
 70
     0
  9
$PUCSORGTOP
 10
0.0
 20
0.0
 30
0.0
  9
$PUCSORGBOTTOM
 10
0.0
 20
0.0
 30
0.0
  9
$PUCSORGLEFT
 10
0.0
 20
0.0
 30
0.0
  9
$PUCSORGRIGHT
 10
0.0
 20
0.0
 30
0.0
  9
$PUCSORGFRONT
 10
0.0
 20
0.0
 30
0.0
  9
$PUCSORGBACK
 10
0.0
 20
0.0
 30
0.0
  9
$USERI1
 70
     0
  9
$USERI2
 70
     0
  9
$USERI3
 70
     0
  9
$USERI4
 70
     0
  9
$USERI5
 70
     0
  9
$USERR1
 40
0.0
  9
$USERR2
 40
0.0
  9
$USERR3
 40
0.0
  9
$USERR4
 40
0.0
  9
$USERR5
 40
0.0
  9
$WORLDVIEW
 70
     1
  9
$SHADEDGE
 70
     3
  9
$SHADEDIF
 70
    70
  9
$TILEMODE
 70
     1
  9
$MAXACTVP
 70
    64
  9
$PINSBASE
 10
0.0
 20
0.0
 30
0.0
  9
$PLIMCHECK
 70
     0
  9
$PEXTMIN
 10
1.0000000000E+20
 20
1.0000000000E+20
 30
1.0000000000E+20
  9
$PEXTMAX
 10
-1.0000000000E+20
 20
-1.0000000000E+20
 30
-1.0000000000E+20
  9
$PLIMMIN
 10
0.0
 20
0.0
  9
$PLIMMAX
 10
420.0
 20
297.0
  9
$UNITMODE
 70
     0
  9
$VISRETAIN
 70
     1
  9
$PLINEGEN
 70
     0
  9
$PSLTSCALE
 70
     1
  9
$TREEDEPTH
 70
  3020
  9
$CMLSTYLE
  2
Standard
  9
$CMLJUST
 70
     0
  9
$CMLSCALE
 40
20.0
  9
$PROXYGRAPHICS
 70
     1
  9
$MEASUREMENT
 70
     1
  9
$CELWEIGHT
370
    -1
  9
$ENDCAPS
280
     0
  9
$JOINSTYLE
280
     0
  9
$LWDISPLAY
290
     1
  9
$INSUNITS
 70
     4
  9
$HYPERLINKBASE
  1

  9
$STYLESHEET
  1

  9
$XEDIT
290
     1
  9
$CEPSNTYPE
380
     0
  9
$PSTYLEMODE
290
     1
  9
$FINGERPRINTGUID
  2
{c56cbb37-6296-4434-92cf-88edacb13159}
  9
$VERSIONGUID
  2
{FAEB1C32-E019-11D5-929B-00C0DF256EC4}
  9
$EXTNAMES
290
     1
  9
$PSVPSCALE
 40
0.0
  9
$OLESTARTUP
290
     0
  0
ENDSEC
  0
SECTION
  2
CLASSES
  0
CLASS
  1
ACDBDICTIONARYWDFLT
  2
AcDbDictionaryWithDefault
  3
ObjectDBX Classes
 90
        0
280
     0
281
     0
  0
CLASS
  1
VISUALSTYLE
  2
AcDbVisualStyle
  3
ObjectDBX Classes
 90
     4095
280
     0
281
     0
  0
CLASS
  1
MATERIAL
  2
AcDbMaterial
  3
ObjectDBX Classes
 90
     1153
280
     0
281
     0
  0
CLASS
  1
SCALE
  2
AcDbScale
  3
ObjectDBX Classes
 90
     1153
280
     0
281
     0
  0
CLASS
  1
TABLESTYLE
  2
AcDbTableStyle
  3
ObjectDBX Classes
 90
     4095
280
     0
281
     0
  0
CLASS
  1
MLEADERSTYLE
  2
AcDbMLeaderStyle
  3
ACDB_MLEADERSTYLE_CLASS
 90
     4095
280
     0
281
     0
  0
CLASS
  1
SUN
  2
AcDbSun
  3
SCENEOE
 90
     1153
280
     0
281
     0
  0
CLASS
  1
ACDBPLACEHOLDER
  2
AcDbPlaceHolder
  3
ObjectDBX Classes
 90
        0
280
     0
281
     0
  0
CLASS
  1
LAYOUT
  2
AcDbLayout
  3
ObjectDBX Classes
 90
        0
280
     0
281
     0
  0
ENDSEC
  0
SECTION
  2
TABLES
  0
TABLE
  2
VPORT
  5
8
330
0
100
AcDbSymbolTable
 70
     1
  0
VPORT
  5
29
330
8
100
AcDbSymbolTableRecord
100
AcDbViewportTableRecord
  2
*Active
 70
     0
 10
0.0
 20
0.0
 11
1.0
 21
1.0
 12
0.0
 22
-0.0657894737
 13
0.0
 23
0.0
 14
10.0
 24
10.0
 15
10.0
 25
10.0
 16
0.0
 26
0.0
 36
1.0
 17
0.0
 27
0.0
 37
0.0
 40
38.3842105263
 41
0.276740268
 42
50.0
 43
0.0
 44
0.0
 50
0.0
 51
0.0
 71
     0
 72
   100
 73
     1
 74
     3
 75
     0
 76
     0
 77
     0
 78
     0
281
     0
 65
     1
110
0.0
120
0.0
130
0.0
111
1.0
121
0.0
131
0.0
112
0.0
122
1.0
132
0.0
 79
     0
146
0.0
  0
ENDTAB
  0
TABLE
  2
LTYPE
  5
5
330
0
100
AcDbSymbolTable
 70
     6
  0
LTYPE
  5
14
330
5
100
AcDbSymbolTableRecord
100
AcDbLinetypeTableRecord
  2
ByBlock
 70
     0
  3

 72
    65
 73
     0
 40
0.0
  0
LTYPE
  5
15
330
5
100
AcDbSymbolTableRecord
100
AcDbLinetypeTableRecord
  2
ByLayer
 70
     0
  3

 72
    65
 73
     0
 40
0.0
  0
LTYPE
  5
16
330
5
100
AcDbSymbolTableRecord
100
AcDbLinetypeTableRecord
  2
Continuous
 70
     0
  3
Solid line
 72
    65
 73
     0
 40
0.0
  0
LTYPE
  5
6E
330
5
100
AcDbSymbolTableRecord
100
AcDbLinetypeTableRecord
  2
HIDDEN
 70
     0
  3
Hidden __ __ __ __ __ __ __ __ __ __ __ __ __ __
 72
    65
 73
     2
 40
1.905
 49
1.27
 74
     0
 49
-0.635
 74
     0
  0
LTYPE
  5
6F
330
5
100
AcDbSymbolTableRecord
100
AcDbLinetypeTableRecord
  2
PHANTOM
 70
     0
  3
Phantom ______  __  __  ______  __  __  ______
 72
    65
 73
     6
 40
12.7
 49
6.35
 74
     0
 49
-1.27
 74
     0
 49
1.27
 74
     0
 49
-1.27
 74
     0
 49
1.27
 74
     0
 49
-1.27
 74
     0
  0
LTYPE
  5
70
330
5
100
AcDbSymbolTableRecord
100
AcDbLinetypeTableRecord
  2
CENTER
 70
     0
  3
Center ____ _ ____ _ ____ _ ____ _ ____ _ ____
 72
    65
 73
     4
 40
10.16
 49
6.35
 74
     0
 49
-1.27
 74
     0
 49
1.27
 74
     0
 49
-1.27
 74
     0
  0
LTYPE
  5
71
330
5
100
AcDbSymbolTableRecord
100
AcDbLinetypeTableRecord
  2
CENTERX2
 70
     0
  3
Center (2x) ________  __  ________  __  _____
 72
    65
 73
     4
 40
20.32
 49
12.7
 74
     0
 49
-2.54
 74
     0
 49
2.54
 74
     0
 49
-2.54
 74
     0
  0
LTYPE
  5
72
330
5
100
AcDbSymbolTableRecord
100
AcDbLinetypeTableRecord
  2
DOT2
 70
     0
  3
Dot (.5x) ........................................
 72
    65
 73
     2
 40
0.635
 49
0.0
 74
     0
 49
-0.635
 74
     0
  0
ENDTAB
  0
TABLE
  2
LAYER
  5
2
330
0
100
AcDbSymbolTable
 70
     1
  0
LAYER
  5
10
330
2
100
AcDbSymbolTableRecord
100
AcDbLayerTableRecord
  2
0
 70
     0
 62
     7
  6
Continuous
370
    -3
390
F
  0
ENDTAB
  0
TABLE
  2
STYLE
  5
3
330
0
100
AcDbSymbolTable
 70
     1
  0
STYLE
  5
11
330
3
100
AcDbSymbolTableRecord
100
AcDbTextStyleTableRecord
  2
Standard
 70
     0
 40
0.0
 41
1.0
 50
0.0
 71
     0
 42
3.5
  3
txt
  4

  0
ENDTAB
  0
TABLE
  2
VIEW
  5
6
330
0
100
AcDbSymbolTable
 70
     0
  0
ENDTAB
  0
TABLE
  2
UCS
  5
7
330
0
100
AcDbSymbolTable
 70
     0
  0
ENDTAB
  0
TABLE
  2
APPID
  5
9
330
0
100
AcDbSymbolTable
 70
     1
  0
APPID
  5
12
330
9
100
AcDbSymbolTableRecord
100
AcDbRegAppTableRecord
  2
ACAD
 70
     0
  0
ENDTAB
  0
TABLE
  2
DIMSTYLE
  5
A
330
0
100
AcDbSymbolTable
 70
     1
100
AcDbDimStyleTable
  0
DIMSTYLE
105
27
330
A
100
AcDbSymbolTableRecord
100
AcDbDimStyleTableRecord
  2
ISO-25
 70
     0
 41
2.5
 42
0.625
 43
3.75
 44
1.25
 73
     0
 74
     0
 77
     1
 78
     8
140
2.5
141
2.5
143
0.0393700787
147
0.625
171
     3
172
     1
178
     0
271
     2
272
     2
274
     3
278
    44
283
     0
284
     8
340
11
  0
ENDTAB
  0
TABLE
  2
BLOCK_RECORD
  5
1
330
0
100
AcDbSymbolTable
 70
     1
  0
BLOCK_RECORD
  5
1F
330
1
100
AcDbSymbolTableRecord
100
AcDbBlockTableRecord
  2
*Model_Space
340
22
  0
BLOCK_RECORD
  5
1B
330
1
100
AcDbSymbolTableRecord
100
AcDbBlockTableRecord
  2
*Paper_Space
340
1E
  0
BLOCK_RECORD
  5
23
330
1
100
AcDbSymbolTableRecord
100
AcDbBlockTableRecord
  2
*Paper_Space0
340
26
  0
ENDTAB
  0
ENDSEC
  0
SECTION
  2
BLOCKS
  0
BLOCK
  5
20
330
1F
100
AcDbEntity
  8
0
100
AcDbBlockBegin
  2
*Model_Space
 70
     0
 10
0.0
 20
0.0
 30
0.0
  3
*Model_Space
  1

  0
ENDBLK
  5
21
330
1F
100
AcDbEntity
  8
0
100
AcDbBlockEnd
  0
BLOCK
  5
1C
330
1B
100
AcDbEntity
 67
     1
  8
0
100
AcDbBlockBegin
  2
*Paper_Space
 70
     0
 10
0.0
 20
0.0
 30
0.0
  3
*Paper_Space
  1

  0
ENDBLK
  5
1D
330
1B
100
AcDbEntity
 67
     1
  8
0
100
AcDbBlockEnd
  0
BLOCK
  5
24
330
23
100
AcDbEntity
  8
0
100
AcDbBlockBegin
  2
*Paper_Space0
 70
     0
 10
0.0
 20
0.0
 30
0.0
  3
*Paper_Space0
  1

  0
ENDBLK
  5
25
330
23
100
AcDbEntity
  8
0
100
AcDbBlockEnd
  0
ENDSEC
  0
SECTION
  2
ENTITIES
  0
ARC
  5
73
330
1F
100
AcDbEntity
  8
0
  6
Continuous
 62
     7
100
AcDbCircle
 10
11.9674657534
 20
11.9674657534
 30
0.0
 40
16.6745523757286
100
AcDbArc
 50
155.9985602086
 51
224.1343983674
  0
ARC
  5
74
330
1F
100
AcDbEntity
  8
0
  6
Continuous
 62
     7
100
AcDbCircle
 10
11.9674657534
 20
11.9674657534
 30
0.0
 40
17.1745523757286
100
AcDbArc
 50
156.7391604081
 51
224.1719334416
  0
ARC
  5
75
330
1F
100
AcDbEntity
  8
0
  6
Continuous
 62
     7
100
AcDbCircle
 10
-11.9674657534
 20
-11.9674657534
 30
0.0
 40
17.17455237572859
100
AcDbArc
 50
336.7391604081
 51
44.1719334416
  0
ARC
  5
76
330
1F
100
AcDbEntity
  8
0
  6
Continuous
 62
     7
100
AcDbCircle
 10
-11.9674657534
 20
-11.9674657534
 30
0.0
 40
16.6745523757286
100
AcDbArc
 50
335.9985602086
 51
44.1343983674
  0
ARC
  5
77
330
1F
100
AcDbEntity
  8
0
  6
Continuous
 62
     7
100
AcDbCircle
 10
11.9674657534
 20
-11.9674657534
 30
0.0
 40
17.1745523757286
100
AcDbArc
 50
135.8280665584
 51
147.3920932383
  0
ARC
  5
78
330
1F
100
AcDbEntity
  8
0
  6
Continuous
 62
     7
100
AcDbCircle
 10
-11.9674657534
 20
11.9674657534
 30
0.0
 40
17.1745523757286
100
AcDbArc
 50
315.8280665584
 51
327.3920932383
  0
ARC
  5
79
330
1F
100
AcDbEntity
  8
0
  6
Continuous
 62
     7
100
AcDbCircle
 10
11.9674657534
 20
-11.9674657534
 30
0.0
 40
16.67455237572858
100
AcDbArc
 50
135.8656016326
 51
150.1852434811
  0
LINE
  5
7A
330
1F
100
AcDbEntity
  8
0
  6
Continuous
 62
     7
100
AcDbLine
 10
0.1767766953
 20
-0.1767766953
 30
0.0
 11
0.1754710722
 21
-0.178082463
 31
0.0
  0
ARC
  5
7B
330
1F
100
AcDbEntity
  8
0
  6
Continuous
 62
     7
100
AcDbCircle
 10
-11.9674657534
 20
11.9674657534
 30
0.0
 40
16.67455237572859
100
AcDbArc
 50
315.8656016326
 51
330.1852434811
  0
LINE
  5
7C
330
1F
100
AcDbEntity
  8
0
  6
Continuous
 62
     7
100
AcDbLine
 10
0.1754710722
 20
0.178082463
 30
0.0
 11
0.1767766953
 21
0.1767766953
 31
0.0
  0
LINE
  5
7D
330
1F
100
AcDbEntity
  8
0
  6
Continuous
 62
     7
100
AcDbLine
 10
-0.1767766953
 20
0.1767766953
 30
0.0
 11
-0.1754710722
 21
0.178082463
 31
0.0
  0
LINE
  5
82
330
1F
100
AcDbEntity
  8
0
  6
Continuous
 62
     7
100
AcDbLine
 10
2.5
 20
2.7123221035
 30
0.0
 11
2.5
 21
3.6769210425
 31
0.0
  0
LINE
  5
83
330
1F
100
AcDbEntity
  8
0
  6
Continuous
 62
     7
100
AcDbLine
 10
-2.5
 20
-3.6769210425
 30
0.0
 11
-2.5
 21
-2.7123221035
 31
0.0
  0
LINE
  5
87
330
1F
100
AcDbEntity
  8
0
  6
Continuous
 62
     7
100
AcDbLine
 10
3.8110791256
 20
-18.75
 30
0.0
 11
3.2653253935
 21
-18.75
 31
0.0
  0
LINE
  5
88
330
1F
100
AcDbEntity
  8
0
  6
Continuous
 62
     7
100
AcDbLine
 10
-3.2653253935
 20
18.75
 30
0.0
 11
-3.8110791256
 21
18.75
 31
0.0
  0
LWPOLYLINE
  5
8A
330
1F
100
AcDbEntity
  8
0
  6
Continuous
 62
     7
100
AcDbPolyline
 90
       44
 70
   128
 43
0.0
 10
-0.5921050906
 20
17.6315789474
 10
-2.5
 20
17.6315789474
 10
-2.5
 20
17.6315789474
 10
-2.5
 20
18.2236842105
 10
-2.5
 20
18.2236842105
 10
2.5
 20
18.2236842105
 10
2.5
 20
18.2236842105
 10
2.5
 20
16.8636924342
 10
2.5
 20
16.8636924342
 10
2.4938322368
 20
16.6704358553
 10
2.4753289474
 20
16.4895148026
 10
2.4455180921
 20
16.3188733553
 10
2.4033717105
 20
16.1595394737
 10
2.3478618421
 20
16.0115131579
 10
2.2810444079
 20
15.8737664474
 10
2.2029194079
 20
15.7483552632
 10
2.1114309211
 20
15.6332236842
 10
2.0096628289
 20
15.5314555921
 10
1.8976151316
 20
15.4430509868
 10
1.7763157895
 20
15.3680098684
 10
1.6437088816
 20
15.3063322368
 10
1.5018503289
 20
15.2590460526
 10
1.3507401316
 20
15.2251233553
 10
1.1883223684
 20
15.2045641447
 10
1.0166529605
 20
15.1973684211
 10
1.0166529605
 20
15.1973684211
 10
0.8439555921
 20
15.2045641447
 10
0.6794819079
 20
15.2271792763
 10
0.5222039474
 20
15.2652138158
 10
0.3731496711
 20
15.3176398026
 10
0.2323190789
 20
15.3854851974
 10
0.0997121711
 20
15.46875
 10
-0.0246710526
 20
15.56640625
 10
-0.1418585526
 20
15.6794819079
 10
-0.2477384868
 20
15.8059210526
 10
-0.3392269737
 20
15.9426398026
 10
-0.4163240132
 20
16.0896381579
 10
-0.4790296053
 20
16.2469161184
 10
-0.5283717105
 20
16.4155016447
 10
-0.5643503289
 20
16.5943667763
 10
-0.5849095395
 20
16.7835115132
 10
-0.5921052632
 20
16.9829358553
 10
-0.5921052632
 20
16.9829358553
 10
-0.5921052632
 20
17.6315789474
  0
LWPOLYLINE
  5
8B
330
1F
100
AcDbEntity
  8
0
  6
Continuous
 62
     7
100
AcDbPolyline
 90
       40
 70
   128
 43
0.0
 10
1.9736830145
 20
17.6315789474
 10
-0.0657894737
 20
17.6315789474
 10
-0.0657894737
 20
17.6315789474
 10
-0.0657894737
 20
17.0230263158
 10
-0.0657894737
 20
17.0230263158
 10
-0.0616776316
 20
16.8770559211
 10
-0.0483141447
 20
16.7403371711
 10
-0.0267269737
 20
16.6118421053
 10
0.0030838816
 20
16.4925986842
 10
0.0421463816
 20
16.3826069079
 10
0.0894325658
 20
16.2808388158
 10
0.1449424342
 20
16.1883223684
 10
0.2097039474
 20
16.1050575658
 10
0.2816611842
 20
16.0310444079
 10
0.3618421053
 20
15.9673108553
 10
0.4481907895
 20
15.9128289474
 10
0.5427631579
 20
15.8686266447
 10
0.6435032895
 20
15.8336759868
 10
0.7514391447
 20
15.8090049342
 10
0.8665707237
 20
15.7946134868
 10
0.9888980263
 20
15.7894736842
 10
0.9888980263
 20
15.7894736842
 10
1.1081414474
 20
15.7935855263
 10
1.2201891447
 20
15.8079769737
 10
1.3240131579
 20
15.8305921053
 10
1.4196134868
 20
15.8624588816
 10
1.5080180921
 20
15.9025493421
 10
1.5892269737
 20
15.9529194079
 10
1.6622121711
 20
16.0115131579
 10
1.7280016447
 20
16.0803865132
 10
1.7855674342
 20
16.1574835526
 10
1.8349095395
 20
16.2428042763
 10
1.8770559211
 20
16.3384046053
 10
1.9120065789
 20
16.4432565789
 10
1.9387335526
 20
16.5563322368
 10
1.9582648026
 20
16.6786595395
 10
1.9695723684
 20
16.8102384868
 10
1.9736842105
 20
16.9510690789
 10
1.9736842105
 20
16.9510690789
 10
1.9736842105
 20
17.6315789474
  0
LWPOLYLINE
  5
8C
330
1F
100
AcDbEntity
  8
0
  6
Continuous
 62
     7
100
AcDbPolyline
 90
       70
 70
   128
 43
0.0
 10
-2.4999994785
 20
9.5394736842
 10
-2.5
 20
10.2333470395
 10
-2.5
 20
10.2333470395
 10
-1.1122532895
 20
11.0659950658
 10
-1.1122532895
 20
11.0659950658
 10
-0.9333881579
 20
11.1821546053
 10
-0.7833059211
 20
11.2942023026
 10
-0.6589226974
 20
11.40625
 10
-0.5602384868
 20
11.5213815789
 10
-0.4851973684
 20
11.6416529605
 10
-0.4348273026
 20
11.7711759868
 10
-0.4050164474
 20
11.9140625
 10
-0.3947368421
 20
12.0733963816
 10
-0.3947368421
 20
12.0733963816
 10
-0.3947368421
 20
12.5657894737
 10
-0.3947368421
 20
12.5657894737
 10
-2.5
 20
12.5657894737
 10
-2.5
 20
12.5657894737
 10
-2.5
 20
13.1578947368
 10
-2.5
 20
13.1578947368
 10
2.5
 20
13.1578947368
 10
2.5
 20
13.1578947368
 10
2.5
 20
11.6591282895
 10
2.5
 20
11.6591282895
 10
2.4948601974
 20
11.4977384868
 10
2.4794407895
 20
11.3425164474
 10
2.4527138158
 20
11.1934621711
 10
2.4167351974
 20
11.0505756579
 10
2.3704769737
 20
10.9159128289
 10
2.3129111842
 20
10.7915296053
 10
2.2450657895
 20
10.6743421053
 10
2.1659128289
 20
10.5674342105
 10
2.0764802632
 20
10.4708059211
 10
1.9767680921
 20
10.3854851974
 10
1.8657483553
 20
10.3104440789
 10
1.7454769737
 20
10.2467105263
 10
1.6149259868
 20
10.1963404605
 10
1.4730674342
 20
10.1603618421
 10
1.3199013158
 20
10.1387746711
 10
1.1564555921
 20
10.1315789474
 10
1.1564555921
 20
10.1315789474
 10
1.0279605263
 20
10.13671875
 10
0.9046052632
 20
10.1511101974
 10
0.7863898026
 20
10.17578125
 10
0.6733141447
 20
10.2097039474
 10
0.56640625
 20
10.25390625
 10
0.4656661184
 20
10.3053042763
 10
0.3700657895
 20
10.3659539474
 10
0.2806332237
 20
10.4337993421
 10
0.1983963816
 20
10.5108963816
 10
0.1212993421
 20
10.5941611842
 10
0.0513980263
 20
10.6856496711
 10
-0.0123355263
 20
10.7843338816
 10
-0.0699013158
 20
10.8902138158
 10
-0.1202713816
 20
11.0012335526
 10
-0.1634457237
 20
11.1194490132
 10
-0.2004523026
 20
11.2438322368
 10
-0.2004523026
 20
11.2438322368
 10
-0.21484375
 20
11.2438322368
 10
-0.21484375
 20
11.2438322368
 10
-0.2744654605
 20
11.1225328947
 10
-0.3412828947
 20
11.0176809211
 10
-0.4173519737
 20
10.9241365132
 10
-0.5078125
 20
10.8347039474
 10
-0.6106085526
 20
10.7483552632
 10
-0.7277960526
 20
10.6630345395
 10
-0.8604029605
 20
10.5725740132
 10
-1.0125411184
 20
10.4728618421
 10
-1.0125411184
 20
10.4728618421
 10
-2.5
 20
9.5394736842
  0
LWPOLYLINE
  5
8D
330
1F
100
AcDbEntity
  8
0
  6
Continuous
 62
     7
100
AcDbPolyline
 90
       40
 70
   128
 43
0.0
 10
1.9736830145
 20
12.5657894737
 10
0.1315789474
 20
12.5657894737
 10
0.1315789474
 20
12.5657894737
 10
0.1315789474
 20
11.7578125
 10
0.1315789474
 20
11.7578125
 10
0.1356907895
 20
11.6488486842
 10
0.1480263158
 20
11.54296875
 10
0.1696134868
 20
11.4422286184
 10
0.1983963816
 20
11.3445723684
 10
0.2364309211
 20
11.2530838816
 10
0.2806332237
 20
11.1687911184
 10
0.3330592105
 20
11.0896381579
 10
0.3916529605
 20
11.0176809211
 10
0.4584703947
 20
10.9529194079
 10
0.5324835526
 20
10.8953536184
 10
0.6126644737
 20
10.8449835526
 10
0.7000411184
 20
10.8018092105
 10
0.7946134868
 20
10.7678865132
 10
0.8943256579
 20
10.7432154605
 10
0.9991776316
 20
10.7288240132
 10
1.1091694079
 20
10.7236842105
 10
1.1091694079
 20
10.7236842105
 10
1.2078536184
 20
10.7277960526
 10
1.3013980263
 20
10.7401315789
 10
1.3898026316
 20
10.7606907895
 10
1.4720394737
 20
10.7894736842
 10
1.5481085526
 20
10.8264802632
 10
1.6190378289
 20
10.8717105263
 10
1.6848273026
 20
10.9251644737
 10
1.7444490132
 20
10.9868421053
 10
1.7979029605
 20
11.0567434211
 10
1.8451891447
 20
11.1338404605
 10
1.8842516447
 20
11.2181332237
 10
1.9161184211
 20
11.3096217105
 10
1.9418174342
 20
11.4093338816
 10
1.9592927632
 20
11.5152138158
 10
1.9706003289
 20
11.6293174342
 10
1.9736842105
 20
11.7506167763
 10
1.9736842105
 20
11.7506167763
 10
1.9736842105
 20
12.5657894737
  0
LWPOLYLINE
  5
8E
330
1F
100
AcDbEntity
  8
0
  6
Continuous
 62
     7
100
AcDbPolyline
 90
       68
 70
   128
 43
0.0
 10
-2.5657881051
 20
5.8429276316
 10
-2.5544819079
 20
6.0988898026
 10
-2.5226151316
 20
6.3425164474
 10
-2.4681332237
 20
6.5717516447
 10
-2.3920641447
 20
6.7886513158
 10
-2.2944078947
 20
6.9932154605
 10
-2.1741365132
 20
7.1833881579
 10
-2.0333059211
 20
7.3612253289
 10
-1.8698601974
 20
7.5256990132
 10
-1.6889391447
 20
7.6737253289
 10
-1.4956825658
 20
7.8022203947
 10
-1.2890625
 20
7.9111842105
 10
-1.0690789474
 20
7.9995888158
 10
-0.8357319079
 20
8.0694901316
 10
-0.5900493421
 20
8.1188322368
 10
-0.3310032895
 20
8.1476151316
 10
-0.05859375
 20
8.1578947368
 10
-0.05859375
 20
8.1578947368
 10
0.2333470395
 20
8.1476151316
 10
0.5098684211
 20
8.1178042763
 10
0.7719983553
 20
8.0674342105
 10
1.0176809211
 20
7.9965049342
 10
1.2489720395
 20
7.9060444079
 10
1.4658717105
 20
7.7950246711
 10
1.6663240132
 20
7.6644736842
 10
1.8523848684
 20
7.5133634868
 10
2.0199424342
 20
7.3447779605
 10
2.1648848684
 20
7.1628289474
 10
2.2872121711
 20
6.9654605263
 10
2.3879523026
 20
6.7537006579
 10
2.4650493421
 20
6.5275493421
 10
2.5215871711
 20
6.2859786184
 10
2.5544819079
 20
6.0310444079
 10
2.5657894737
 20
5.7606907895
 10
2.5657894737
 20
5.7606907895
 10
2.5544819079
 20
5.5108963816
 10
2.5226151316
 20
5.2734375
 10
2.4681332237
 20
5.0493421053
 10
2.3930921053
 20
4.8365542763
 10
2.2954358553
 20
4.6371299342
 10
2.1761924342
 20
4.4490131579
 10
2.0353618421
 20
4.2742598684
 10
1.8729440789
 20
4.1118421053
 10
1.6930509868
 20
3.9658717105
 10
1.5008223684
 20
3.8384046053
 10
1.2942023026
 20
3.7314967105
 10
1.07421875
 20
3.6430921053
 10
0.8418996711
 20
3.5752467105
 10
0.5951891447
 20
3.5259046053
 10
0.3361430921
 20
3.4971217105
 10
0.0627055921
 20
3.4868421053
 10
0.0627055921
 20
3.4868421053
 10
-0.2333470395
 20
3.4971217105
 10
-0.5129523026
 20
3.5269325658
 10
-0.7771381579
 20
3.5773026316
 10
-1.0259046053
 20
3.6472039474
 10
-1.2582236842
 20
3.7366365132
 10
-1.4740953947
 20
3.8466282895
 10
-1.6745476974
 20
3.9771792763
 10
-1.8595805921
 20
4.1272615132
 10
-2.0250822368
 20
4.2948190789
 10
-2.1689967105
 20
4.4747121711
 10
-2.2902960526
 20
4.6689967105
 10
-2.3889802632
 20
4.8766447368
 10
-2.4660773026
 20
5.09765625
 10
-2.5215871711
 20
5.3330592105
 10
-2.5544819079
 20
5.5807976974
 10
-2.5657894737
 20
5.8429276316
  0
LWPOLYLINE
  5
8F
330
1F
100
AcDbEntity
  8
0
  6
Continuous
 62
     7
100
AcDbPolyline
 90
       68
 70
   128
 43
0.0
 10
2.0394735038
 20
5.8018092105
 10
2.0302220395
 20
5.9930098684
 10
2.0045230263
 20
6.1759868421
 10
1.9603207237
 20
6.3486842105
 10
1.8986430921
 20
6.5121299342
 10
1.8194901316
 20
6.6673519737
 10
1.7218338816
 20
6.8122944079
 10
1.6077302632
 20
6.9490131579
 10
1.4751233553
 20
7.0754523026
 10
1.3291529605
 20
7.1905838816
 10
1.171875
 20
7.2902960526
 10
1.0032894737
 20
7.3745888158
 10
0.8233963816
 20
7.4434621711
 10
0.6332236842
 20
7.4969161184
 10
0.4317434211
 20
7.5349506579
 10
0.2189555921
 20
7.55859375
 10
-0.0051398026
 20
7.5657894737
 10
-0.0051398026
 20
7.5657894737
 10
-0.2292351974
 20
7.55859375
 10
-0.4409950658
 20
7.5359786184
 10
-0.6424753289
 20
7.4989720395
 10
-0.8326480263
 20
7.4465460526
 10
-1.0115131579
 20
7.3787006579
 10
-1.1790707237
 20
7.2964638158
 10
-1.3363486842
 20
7.1998355263
 10
-1.4812911184
 20
7.0877878289
 10
-1.6118421053
 20
6.9644325658
 10
-1.7259457237
 20
6.8307976974
 10
-1.8215460526
 20
6.6889391447
 10
-1.8996710526
 20
6.5378289474
 10
-1.9613486842
 20
6.3774671053
 10
-2.0045230263
 20
6.2088815789
 10
-2.03125
 20
6.0300164474
 10
-2.0394736842
 20
5.8429276316
 10
-2.0394736842
 20
5.8429276316
 10
-2.03125
 20
5.6435032895
 10
-2.0065789474
 20
5.4553865132
 10
-1.9644325658
 20
5.2775493421
 10
-1.9058388158
 20
5.1099917763
 10
-1.8318256579
 20
4.9537417763
 10
-1.7403371711
 20
4.8087993421
 10
-1.6313733553
 20
4.6741365132
 10
-1.5069901316
 20
4.55078125
 10
-1.3671875
 20
4.4397615132
 10
-1.2140213816
 20
4.3441611842
 10
-1.0474917763
 20
4.2629523026
 10
-0.8675986842
 20
4.1971628289
 10
-0.6743421053
 20
4.1457648026
 10
-0.4677220395
 20
4.1087582237
 10
-0.2487664474
 20
4.0861430921
 10
-0.0154194079
 20
4.0789473684
 10
-0.0154194079
 20
4.0789473684
 10
0.2230674342
 20
4.0861430921
 10
0.4481907895
 20
4.1077302632
 10
0.6589226974
 20
4.1437088816
 10
0.8552631579
 20
4.1940789474
 10
1.0382401316
 20
4.2578125
 10
1.2068256579
 20
4.3369654605
 10
1.3620476974
 20
4.4294819079
 10
1.5028782895
 20
4.5374177632
 10
1.6282894737
 20
4.6576891447
 10
1.7372532895
 20
4.7882401316
 10
1.8297697368
 20
4.9300986842
 10
1.9058388158
 20
5.0832648026
 10
1.9644325658
 20
5.2467105263
 10
2.0055509868
 20
5.4204358553
 10
2.03125
 20
5.60546875
 10
2.0394736842
 20
5.8018092105
  0
LWPOLYLINE
  5
90
330
1F
100
AcDbEntity
  8
0
  6
Continuous
 62
     7
100
AcDbPolyline
 90
        8
 70
   128
 43
0.0
 10
-2.4999994785
 20
-5.1973684211
 10
-2.5
 20
-4.6052631579
 10
-2.5
 20
-4.6052631579
 10
2.5
 20
-4.6052631579
 10
2.5
 20
-4.6052631579
 10
2.5
 20
-5.1973684211
 10
2.5
 20
-5.1973684211
 10
-2.5
 20
-5.1973684211
  0
LWPOLYLINE
  5
91
330
1F
100
AcDbEntity
  8
0
  6
Continuous
 62
     7
100
AcDbPolyline
 90
       66
 70
   128
 43
0.0
 10
-2.4999994785
 20
-12.6315789474
 10
-2.5
 20
-12.0394736842
 10
-2.5
 20
-12.0394736842
 10
0.8542351974
 20
-12.0394736842
 10
0.8542351974
 20
-12.0394736842
 10
1.0639391447
 20
-12.0425575658
 10
1.2962582237
 20
-12.0518092105
 10
1.5501644737
 20
-12.0672286184
 10
1.8266858553
 20
-12.0888157895
 10
1.8266858553
 20
-12.0888157895
 10
1.8266858553
 20
-12.0754523026
 10
1.8266858553
 20
-12.0754523026
 10
1.6694078947
 20
-12.0353618421
 10
1.5368009868
 20
-11.9973273026
 10
1.4278371711
 20
-11.9613486842
 10
1.3425164474
 20
-11.9274259868
 10
1.3425164474
 20
-11.9274259868
 10
-2.5
 20
-10.2477384868
 10
-2.5
 20
-10.2477384868
 10
-2.5
 20
-9.9671052632
 10
-2.5
 20
-9.9671052632
 10
1.3137335526
 20
-8.2905016447
 10
1.3137335526
 20
-8.2905016447
 10
1.4083059211
 20
-8.2545230263
 10
1.5254934211
 20
-8.2175164474
 10
1.6652960526
 20
-8.1805098684
 10
1.8266858553
 20
-8.1424753289
 10
1.8266858553
 20
-8.1424753289
 10
1.8266858553
 20
-8.1291118421
 10
1.8266858553
 20
-8.1291118421
 10
1.7454769737
 20
-8.1363075658
 10
1.6529605263
 20
-8.1414473684
 10
1.5481085526
 20
-8.1465871711
 10
1.4319490132
 20
-8.1506990132
 10
1.3034539474
 20
-8.1537828947
 10
1.1626233553
 20
-8.1558388158
 10
1.0104851974
 20
-8.1578947368
 10
0.8470394737
 20
-8.1578947368
 10
0.8470394737
 20
-8.1578947368
 10
-2.5
 20
-8.1578947368
 10
-2.5
 20
-8.1578947368
 10
-2.5
 20
-7.5657894737
 10
-2.5
 20
-7.5657894737
 10
2.5
 20
-7.5657894737
 10
2.5
 20
-7.5657894737
 10
2.5
 20
-8.3665707237
 10
2.5
 20
-8.3665707237
 10
-0.9868421053
 20
-9.8715049342
 10
-0.9868421053
 20
-9.8715049342
 10
-1.1749588816
 20
-9.9506578947
 10
-1.3373766447
 20
-10.0154194079
 10
-1.4740953947
 20
-10.0637335526
 10
-1.5861430921
 20
-10.09765625
 10
-1.5861430921
 20
-10.09765625
 10
-1.5861430921
 20
-10.1182154605
 10
-1.5861430921
 20
-10.1182154605
 10
-1.3939144737
 20
-10.1881167763
 10
-1.2273848684
 20
-10.2508223684
 10
-1.0865542763
 20
-10.3063322368
 10
-0.9724506579
 20
-10.3546463816
 10
-0.9724506579
 20
-10.3546463816
 10
2.5
 20
-11.8904194079
 10
2.5
 20
-11.8904194079
 10
2.5
 20
-12.6315789474
 10
2.5
 20
-12.6315789474
 10
-2.5
 20
-12.6315789474
  0
LWPOLYLINE
  5
92
330
1F
100
AcDbEntity
  8
0
  6
Continuous
 62
     7
100
AcDbPolyline
 90
       16
 70
   128
 43
0.0
 10
-2.4999994785
 20
-18.8815789474
 10
-2.5
 20
-18.2298519737
 10
-2.5
 20
-18.2298519737
 10
-1.1184210526
 20
-17.7035361842
 10
-1.1184210526
 20
-17.7035361842
 10
-1.1184210526
 20
-15.5550986842
 10
-1.1184210526
 20
-15.5550986842
 10
-2.5
 20
-15.0637335526
 10
-2.5
 20
-15.0637335526
 10
-2.5
 20
-14.4078947368
 10
-2.5
 20
-14.4078947368
 10
2.5
 20
-16.3363486842
 10
2.5
 20
-16.3363486842
 10
2.5
 20
-16.9459292763
 10
2.5
 20
-16.9459292763
 10
-2.5
 20
-18.8815789474
  0
LWPOLYLINE
  5
93
330
1F
100
AcDbEntity
  8
0
  6
Continuous
 62
     7
100
AcDbPolyline
 90
       18
 70
   128
 43
0.0
 10
-0.5921050906
 20
-17.5102796053
 10
1.5717516447
 20
-16.7136101974
 10
1.5717516447
 20
-16.7136101974
 10
1.6324013158
 20
-16.6940789474
 10
1.7084703947
 20
-16.6755756579
 10
1.7999588816
 20
-16.6560444079
 10
1.9078947368
 20
-16.6375411184
 10
1.9078947368
 20
-16.6375411184
 10
1.9078947368
 20
-16.6241776316
 10
1.9078947368
 20
-16.6241776316
 10
1.8071546053
 20
-16.6056743421
 10
1.7166940789
 20
-16.5861430921
 10
1.6385690789
 20
-16.5645559211
 10
1.5717516447
 20
-16.5419407895
 10
1.5717516447
 20
-16.5419407895
 10
-0.5921052632
 20
-15.7493832237
 10
-0.5921052632
 20
-15.7493832237
 10
-0.5921052632
 20
-17.5102796053
  0
ENDSEC
  0
SECTION
  2
OBJECTS
  0
DICTIONARY
  5
C
330
0
100
AcDbDictionary
281
     1
  3
ACAD_GROUP
350
D
  3
ACAD_LAYOUT
350
1A
  3
ACAD_MLINESTYLE
350
17
  3
ACAD_PLOTSETTINGS
350
19
  3
ACAD_PLOTSTYLENAME
350
E
  3
ACAD_SCALELIST
350
47
  0
DICTIONARY
  5
D
102
{ACAD_REACTORS
330
C
102
}
330
C
100
AcDbDictionary
281
     1
  0
DICTIONARY
  5
1A
102
{ACAD_REACTORS
330
C
102
}
330
C
100
AcDbDictionary
281
     1
  3
Layout1
350
1E
  3
Layout2
350
26
  3
Model
350
22
  0
DICTIONARY
  5
17
102
{ACAD_REACTORS
330
C
102
}
330
C
100
AcDbDictionary
281
     1
  3
Standard
350
18
  0
DICTIONARY
  5
19
102
{ACAD_REACTORS
330
C
102
}
330
C
100
AcDbDictionary
281
     1
  0
ACDBDICTIONARYWDFLT
  5
E
102
{ACAD_REACTORS
330
C
102
}
330
C
100
AcDbDictionary
281
     1
  3
Normal
350
F
100
AcDbDictionaryWithDefault
340
F
  0
DICTIONARY
  5
47
102
{ACAD_REACTORS
330
C
102
}
330
C
100
AcDbDictionary
281
     1
  3
A0
350
48
  3
A1
350
49
  3
A2
350
4A
  3
A3
350
4B
  3
A4
350
4C
  3
A5
350
4D
  3
A6
350
4E
  3
A7
350
4F
  3
A8
350
50
  3
A9
350
51
  3
B0
350
52
  3
B1
350
53
  3
B2
350
54
  3
B3
350
55
  3
B4
350
56
  3
B5
350
57
  3
B6
350
58
  3
B7
350
59
  3
B8
350
5A
  3
B9
350
5B
  3
C0
350
5C
  3
C1
350
5D
  3
C2
350
5E
  3
C3
350
5F
  3
C4
350
60
  3
C5
350
61
  3
C6
350
62
  3
C7
350
63
  3
C8
350
64
  3
C9
350
65
  3
D0
350
66
  3
D1
350
67
  3
D2
350
68
  0
LAYOUT
  5
1E
102
{ACAD_REACTORS
330
1A
102
}
330
1A
100
AcDbPlotSettings
  1

  2
none_device
  4

  6

 40
0.0
 41
0.0
 42
0.0
 43
0.0
 44
0.0
 45
0.0
 46
0.0
 47
0.0
 48
0.0
 49
0.0
140
0.0
141
0.0
142
1.0
143
1.0
 70
   688
 72
     1
 73
     0
 74
     5
  7

 75
    16
147
1.0
148
0.0
149
0.0
100
AcDbLayout
  1
Layout1
 70
     1
 71
     1
 10
0.0
 20
0.0
 11
420.0
 21
297.0
 12
0.0
 22
0.0
 32
0.0
 14
1.0000000000E+20
 24
1.0000000000E+20
 34
1.0000000000E+20
 15
-1.0000000000E+20
 25
-1.0000000000E+20
 35
-1.0000000000E+20
146
0.0
 13
0.0
 23
0.0
 33
0.0
 16
1.0
 26
0.0
 36
0.0
 17
0.0
 27
1.0
 37
0.0
 76
     0
330
1B
  0
LAYOUT
  5
26
102
{ACAD_REACTORS
330
1A
102
}
330
1A
100
AcDbPlotSettings
  1

  2
none_device
  4

  6

 40
0.0
 41
0.0
 42
0.0
 43
0.0
 44
0.0
 45
0.0
 46
0.0
 47
0.0
 48
0.0
 49
0.0
140
0.0
141
0.0
142
1.0
143
1.0
 70
   688
 72
     1
 73
     0
 74
     5
  7

 75
    16
147
1.0
148
0.0
149
0.0
100
AcDbLayout
  1
Layout2
 70
     1
 71
     2
 10
0.0
 20
0.0
 11
0.0
 21
0.0
 12
0.0
 22
0.0
 32
0.0
 14
0.0
 24
0.0
 34
0.0
 15
0.0
 25
0.0
 35
0.0
146
0.0
 13
0.0
 23
0.0
 33
0.0
 16
1.0
 26
0.0
 36
0.0
 17
0.0
 27
1.0
 37
0.0
 76
     0
330
23
  0
LAYOUT
  5
22
102
{ACAD_REACTORS
330
1A
102
}
330
1A
100
AcDbPlotSettings
  1

  2
none_device
  4
ANSI_A_(11.00_x_8.50_Inches)
  6

 40
6.35
 41
19.05
 42
6.35000508
 43
19.05000254
 44
279.4
 45
215.9
 46
133.34999746
 47
89.2736718069
 48
0.0
 49
0.0
140
0.0
141
0.0
142
0.2236153846
143
1.0
 70
  1696
 72
     0
 73
     0
 74
     0
  7

 75
     0
147
0.0179189148
148
-1300.4909072572
149
0.0
100
AcDbLayout
  1
Model
 70
     1
 71
     0
 10
0.0
 20
0.0
 11
420.0
 21
297.0
 12
0.0
 22
0.0
 32
0.0
 14
-5.2070866223
 24
-18.8815789474
 34
0.0
 15
5.2070866223
 25
18.75
 35
0.0
146
0.0
 13
0.0
 23
0.0
 33
0.0
 16
1.0
 26
0.0
 36
0.0
 17
0.0
 27
1.0
 37
0.0
 76
     0
330
1F
331
29
  0
MLINESTYLE
  5
18
102
{ACAD_REACTORS
330
17
102
}
330
17
100
AcDbMlineStyle
  2
Standard
 70
     0
  3

 62
   256
 51
90.0
 52
90.0
 71
     2
 49
0.5
 62
   256
  6
BYLAYER
 49
-0.5
 62
   256
  6
BYLAYER
  0
ACDBPLACEHOLDER
  5
F
102
{ACAD_REACTORS
330
E
102
}
330
E
  0
SCALE
  5
48
102
{ACAD_REACTORS
330
47
102
}
330
47
100
AcDbScale
 70
     0
300
1:1
140
1.0
141
1.0
290
     1
  0
SCALE
  5
49
102
{ACAD_REACTORS
330
47
102
}
330
47
100
AcDbScale
 70
     0
300
1:2
140
1.0
141
2.0
290
     0
  0
SCALE
  5
4A
102
{ACAD_REACTORS
330
47
102
}
330
47
100
AcDbScale
 70
     0
300
1:4
140
1.0
141
4.0
290
     0
  0
SCALE
  5
4B
102
{ACAD_REACTORS
330
47
102
}
330
47
100
AcDbScale
 70
     0
300
1:5
140
1.0
141
5.0
290
     0
  0
SCALE
  5
4C
102
{ACAD_REACTORS
330
47
102
}
330
47
100
AcDbScale
 70
     0
300
1:8
140
1.0
141
8.0
290
     0
  0
SCALE
  5
4D
102
{ACAD_REACTORS
330
47
102
}
330
47
100
AcDbScale
 70
     0
300
1:10
140
1.0
141
10.0
290
     0
  0
SCALE
  5
4E
102
{ACAD_REACTORS
330
47
102
}
330
47
100
AcDbScale
 70
     0
300
1:16
140
1.0
141
16.0
290
     0
  0
SCALE
  5
4F
102
{ACAD_REACTORS
330
47
102
}
330
47
100
AcDbScale
 70
     0
300
1:20
140
1.0
141
20.0
290
     0
  0
SCALE
  5
50
102
{ACAD_REACTORS
330
47
102
}
330
47
100
AcDbScale
 70
     0
300
1:30
140
1.0
141
30.0
290
     0
  0
SCALE
  5
51
102
{ACAD_REACTORS
330
47
102
}
330
47
100
AcDbScale
 70
     0
300
1:40
140
1.0
141
40.0
290
     0
  0
SCALE
  5
52
102
{ACAD_REACTORS
330
47
102
}
330
47
100
AcDbScale
 70
     0
300
1:50
140
1.0
141
50.0
290
     0
  0
SCALE
  5
53
102
{ACAD_REACTORS
330
47
102
}
330
47
100
AcDbScale
 70
     0
300
1:100
140
1.0
141
100.0
290
     0
  0
SCALE
  5
54
102
{ACAD_REACTORS
330
47
102
}
330
47
100
AcDbScale
 70
     0
300
2:1
140
2.0
141
1.0
290
     0
  0
SCALE
  5
55
102
{ACAD_REACTORS
330
47
102
}
330
47
100
AcDbScale
 70
     0
300
4:1
140
4.0
141
1.0
290
     0
  0
SCALE
  5
56
102
{ACAD_REACTORS
330
47
102
}
330
47
100
AcDbScale
 70
     0
300
8:1
140
8.0
141
1.0
290
     0
  0
SCALE
  5
57
102
{ACAD_REACTORS
330
47
102
}
330
47
100
AcDbScale
 70
     0
300
10:1
140
10.0
141
1.0
290
     0
  0
SCALE
  5
58
102
{ACAD_REACTORS
330
47
102
}
330
47
100
AcDbScale
 70
     0
300
100:1
140
100.0
141
1.0
290
     0
  0
SCALE
  5
59
102
{ACAD_REACTORS
330
47
102
}
330
47
100
AcDbScale
 70
     0
300
1/128" = 1'-0"
140
0.0078125
141
12.0
290
     0
  0
SCALE
  5
5A
102
{ACAD_REACTORS
330
47
102
}
330
47
100
AcDbScale
 70
     0
300
1/64" = 1'-0"
140
0.015625
141
12.0
290
     0
  0
SCALE
  5
5B
102
{ACAD_REACTORS
330
47
102
}
330
47
100
AcDbScale
 70
     0
300
1/32" = 1'-0"
140
0.03125
141
12.0
290
     0
  0
SCALE
  5
5C
102
{ACAD_REACTORS
330
47
102
}
330
47
100
AcDbScale
 70
     0
300
1/16" = 1'-0"
140
0.0625
141
12.0
290
     0
  0
SCALE
  5
5D
102
{ACAD_REACTORS
330
47
102
}
330
47
100
AcDbScale
 70
     0
300
3/32" = 1'-0"
140
0.09375
141
12.0
290
     0
  0
SCALE
  5
5E
102
{ACAD_REACTORS
330
47
102
}
330
47
100
AcDbScale
 70
     0
300
1/8" = 1'-0"
140
0.125
141
12.0
290
     0
  0
SCALE
  5
5F
102
{ACAD_REACTORS
330
47
102
}
330
47
100
AcDbScale
 70
     0
300
3/16" = 1'-0"
140
0.1875
141
12.0
290
     0
  0
SCALE
  5
60
102
{ACAD_REACTORS
330
47
102
}
330
47
100
AcDbScale
 70
     0
300
1/4" = 1'-0"
140
0.25
141
12.0
290
     0
  0
SCALE
  5
61
102
{ACAD_REACTORS
330
47
102
}
330
47
100
AcDbScale
 70
     0
300
3/8" = 1'-0"
140
0.375
141
12.0
290
     0
  0
SCALE
  5
62
102
{ACAD_REACTORS
330
47
102
}
330
47
100
AcDbScale
 70
     0
300
1/2" = 1'-0"
140
0.5
141
12.0
290
     0
  0
SCALE
  5
63
102
{ACAD_REACTORS
330
47
102
}
330
47
100
AcDbScale
 70
     0
300
3/4" = 1'-0"
140
0.75
141
12.0
290
     0
  0
SCALE
  5
64
102
{ACAD_REACTORS
330
47
102
}
330
47
100
AcDbScale
 70
     0
300
1" = 1'-0"
140
1.0
141
12.0
290
     0
  0
SCALE
  5
65
102
{ACAD_REACTORS
330
47
102
}
330
47
100
AcDbScale
 70
     0
300
1-1/2" = 1'-0"
140
1.5
141
12.0
290
     0
  0
SCALE
  5
66
102
{ACAD_REACTORS
330
47
102
}
330
47
100
AcDbScale
 70
     0
300
3" = 1'-0"
140
3.0
141
12.0
290
     0
  0
SCALE
  5
67
102
{ACAD_REACTORS
330
47
102
}
330
47
100
AcDbScale
 70
     0
300
6" = 1'-0"
140
6.0
141
12.0
290
     0
  0
SCALE
  5
68
102
{ACAD_REACTORS
330
47
102
}
330
47
100
AcDbScale
 70
     0
300
1'-0" = 1'-0"
140
12.0
141
12.0
290
     0
  0
ENDSEC
  0
EOF
